<svg width="24" height="24" viewBox="0 0 24 24" fill="none" xmlns="http://www.w3.org/2000/svg">
<path fill-rule="evenodd" clip-rule="evenodd" d="M15 3C18.3137 3 21 5.68629 21 9V15C21 18.3137 18.3137 21 15 21H9C5.68629 21 3 18.3137 3 15V9C3 5.68629 5.68629 3 9 3H15ZM15 5H9C6.79086 5 5 6.79086 5 9V15C5 17.2091 6.79086 19 9 19H15C17.2091 19 19 17.2091 19 15V9C19 6.79086 17.2091 5 15 5ZM8.28303 10.0771C9.09765 8.45864 10.8584 7.54504 12.6507 7.81082C14.4808 8.0822 15.9178 9.51919 16.1892 11.3493C16.455 13.1416 15.5414 14.9024 13.9229 15.717C12.3044 16.5316 10.346 16.2165 9.06476 14.9352C7.78354 13.654 7.4684 11.6956 8.28303 10.0771ZM12.3573 9.78918C11.4185 9.64997 10.4962 10.1285 10.0695 10.9763C9.64279 11.8241 9.80786 12.8499 10.479 13.521C11.1501 14.1921 12.1759 14.3572 13.0237 13.9305C13.8715 13.5038 14.35 12.5815 14.2108 11.6427C14.0687 10.684 13.316 9.93134 12.3573 9.78918ZM16.408 6.6C16.9603 6.6 17.408 7.04772 17.408 7.6C17.408 8.11284 17.022 8.53551 16.5246 8.59327L16.408 8.6C15.8477 8.6 15.4 8.15228 15.4 7.6C15.4 7.08716 15.786 6.66449 16.2834 6.60673L16.408 6.6Z" fill="#B073C1"/>
</svg>
