<svg width="24" height="24" viewBox="0 0 24 24" fill="none" xmlns="http://www.w3.org/2000/svg">
<path fill-rule="evenodd" clip-rule="evenodd" d="M12.2861 5.00097C13.234 5.00601 14.2969 5.024 15.3049 5.06153C16.842 5.11875 17.9291 5.2078 18.5436 5.3687C19.5886 5.68423 20.383 6.5583 20.6515 7.71176C20.8918 9.13388 21.0085 10.5765 21 12.0122C21.0048 13.4354 20.8881 14.8563 20.639 16.3189C20.383 17.4107 19.5886 18.2847 18.529 18.6046C17.9432 18.7717 16.8526 18.8696 15.3084 18.9326L14.7562 18.9528C14.1963 18.9711 13.6154 18.9837 13.0347 18.9916L12.5208 18.9973H11.4792L10.3853 18.9821C9.80686 18.9709 9.23526 18.9547 8.69158 18.9326C7.14742 18.8696 6.05675 18.7717 5.46514 18.6029C4.44147 18.3039 3.65073 17.4687 3.34853 16.3193C3.10818 14.8972 2.99152 13.4545 3.00001 12.0202C2.99337 10.5861 3.11003 9.15434 3.36096 7.68112C3.61701 6.58934 4.41141 5.71528 5.47099 5.39546C6.07213 5.22387 7.20812 5.12487 8.81608 5.06251L9.33168 5.04437C9.84837 5.02798 10.3658 5.01671 10.8604 5.00959L11.8125 5.00055L12.2861 5.00097ZM9.35169 9.60871V14.3651C9.35169 15.132 10.1794 15.6135 10.846 15.2343L15.0279 12.8562C15.7021 12.4727 15.7021 11.501 15.0279 11.1176L10.846 8.73945C10.1794 8.36033 9.35169 8.8418 9.35169 9.60871Z" fill="#B073C1"/>
</svg>
