<svg width="24" height="24" viewBox="0 0 24 24" fill="none" xmlns="http://www.w3.org/2000/svg">
<path fill-rule="evenodd" clip-rule="evenodd" d="M12 3C16.9706 3 21 7.02944 21 12C21 16.9706 16.9706 21 12 21C7.02944 21 3 16.9706 3 12C3 7.02944 7.02944 3 12 3ZM7.85988 13.0008L5.07103 13.001C5.44694 15.6263 7.27949 17.7815 9.7236 18.6215C8.69354 16.9251 8.05363 15.0082 7.85988 13.0008ZM18.929 13.001L16.143 13.0004C15.9529 14.9977 15.3117 16.919 14.2766 18.622C16.72 17.782 18.553 15.6266 18.929 13.001ZM14.1355 13.0003L9.86772 13.001C10.0793 14.8832 10.7632 16.6799 11.8526 18.2242L11.999 18.425L12.1474 18.2244C13.2424 16.6731 13.9277 14.8704 14.1355 13.0003ZM9.72548 5.37699L9.70078 5.38635C7.26778 6.23208 5.4453 8.38247 5.07089 11L7.85689 11.0006C8.04676 9.0059 8.68698 7.08502 9.72548 5.37699ZM11.999 5.573L11.8594 5.76607C10.7597 7.32094 10.0726 9.12823 9.86451 11.0002L14.1324 10.9999C13.9209 9.11737 13.237 7.3205 12.1474 5.77646L11.999 5.573ZM14.2764 5.37847C15.3076 7.07812 15.9467 8.9939 16.1402 11.0002L18.9291 11C18.5535 8.3743 16.7208 6.21865 14.2764 5.37847Z" fill="#B073C1"/>
</svg>
